<svg width="1024px" height="1024px" viewBox="0 0 1024 1024" xmlns="http://www.w3.org/2000/svg">
  <!-- Background gradient -->
  <defs>
    <linearGradient id="bgGradient" x1="0%" y1="0%" x2="100%" y2="100%">
      <stop offset="0%" stop-color="#f0f0f0" />
      <stop offset="100%" stop-color="#d9d9d9" />
    </linearGradient>
    <radialGradient id="faceShadow" cx="50%" cy="50%" r="50%" fx="50%" fy="50%">
      <stop offset="0%" stop-color="#f9f9f9" stop-opacity="1"/>
      <stop offset="100%" stop-color="#e0e0e0" stop-opacity="1"/>
    </radialGradient>
    <filter id="softGlow" x="-20%" y="-20%" width="140%" height="140%">
      <feGaussianBlur stdDeviation="8" result="blur"/>
      <feComposite in="SourceGraphic" in2="blur" operator="over"/>
    </filter>
  </defs>
  
  <!-- Circular background with subtle shadow -->
  <circle cx="512" cy="512" r="448" fill="url(#bgGradient)" stroke="#ccc" stroke-width="2" filter="url(#softGlow)"/>
  
  <!-- Face base with realistic shading -->
  <circle cx="512" cy="512" r="372" fill="url(#faceShadow)" stroke="#d5d5d5" stroke-width="1"/>
  
  <!-- Eyes with depth and highlights -->
  <g>
    <!-- Left eye -->
    <ellipse cx="384" cy="421" rx="32" ry="28" fill="#333"/>
    <ellipse cx="380" cy="415" rx="8" ry="6" fill="#fff" opacity="0.8"/>
    
    <!-- Right eye -->
    <ellipse cx="640" cy="421" rx="32" ry="28" fill="#333"/>
    <ellipse cx="636" cy="415" rx="8" ry="6" fill="#fff" opacity="0.8"/>
    
    <!-- Eye reflections -->
    <circle cx="390" cy="410" r="4" fill="#fff" opacity="0.9"/>
    <circle cx="646" cy="410" r="4" fill="#fff" opacity="0.9"/>
  </g>
  
  <!-- Mouth with realistic curve and shading -->
  <path d="M512 650 Q 412 650 384 600 Q 412 680 512 680 Q 612 680 640 600 Q 612 650 512 650" 
        fill="#333" fill-opacity="0.8" stroke="#222" stroke-width="1" stroke-linejoin="round"/>
  
  <!-- Subtle cheek blush -->
  <ellipse cx="420" cy="520" rx="40" ry="30" fill="#ffb6c1" opacity="0.15"/>
  <ellipse cx="604" cy="520" rx="40" ry="30" fill="#ffb6c1" opacity="0.15"/>
  
  <!-- Detailed eyebrows -->
  <path d="M340 380 Q 380 350 420 370" stroke="#333" stroke-width="6" fill="none" stroke-linecap="round"/>
  <path d="M684 370 Q 724 350 764 380" stroke="#333" stroke-width="6" fill="none" stroke-linecap="round"/>
  
  <!-- Subtle facial contours -->
  <path d="M512 480 Q 480 520 512 560 Q 544 520 512 480" fill="none" stroke="#d5d5d5" stroke-width="1" opacity="0.5"/>
</svg>